# Blender 4.4.0
# www.blender.org
mtllib triangleCollider.mtl
o Cube
v 0.050190 0.050800 -0.050600
v 0.050190 -0.050800 -0.050600
v 0.050190 0.050800 0.050600
v 0.050190 -0.050800 0.050600
v -0.050190 -0.050800 -0.050600
v -0.050190 -0.050800 0.050600
vn -0.0000 -0.0000 1.0000
vn -0.7114 0.7028 -0.0000
vn -0.0000 -1.0000 -0.0000
vn 1.0000 -0.0000 -0.0000
vn -0.0000 -0.0000 -1.0000
vt 0.375000 0.750000
vt 0.625000 0.750000
vt 0.125000 0.750000
vt 0.625000 0.500000
vt 0.125000 0.500000
vt 0.375000 0.500000
s 0
usemtl Material
f 4/1/1 3/2/1 6/3/1
f 6/3/2 3/2/2 1/4/2 5/5/2
f 5/5/3 2/6/3 4/1/3 6/3/3
f 2/6/4 1/4/4 3/2/4 4/1/4
f 2/6/5 5/5/5 1/4/5
