# Blender 4.4.0
# www.blender.org
mtllib tunnelCollider.mtl
o Cube.002
v 0.103000 0.050590 -0.050590
v -0.015101 0.023577 0.050590
v 0.103000 -0.050590 -0.050590
v -0.029623 0.019272 0.050590
v 0.103000 0.050590 0.050590
v 0.000000 0.025031 0.050590
v 0.103000 -0.050590 0.050590
v 0.015101 0.023577 0.050590
v -0.103000 0.050590 -0.050590
v 0.029622 0.019272 0.050590
v 0.054735 0.002872 0.050590
v -0.103000 -0.050590 -0.050590
v -0.103000 0.050590 0.050590
v 0.043005 0.012281 0.050590
v -0.103000 -0.050590 0.050590
v 0.064362 -0.008593 0.050590
v 0.071515 -0.021673 0.050590
v 0.075920 -0.035866 0.050590
v -0.083087 -0.050590 0.050590
v -0.078902 -0.048939 0.050590
v -0.075920 -0.035866 0.050590
v -0.071515 -0.021673 0.050590
v -0.064362 -0.008593 0.050590
v -0.076832 -0.044912 0.050590
v -0.054735 0.002872 0.050590
v -0.043005 0.012280 0.050590
v 0.078902 -0.048939 0.050590
v 0.083087 -0.050590 0.050590
v 0.076832 -0.044912 0.050590
v 0.083087 -0.050590 -0.050590
v -0.083087 -0.050590 -0.050590
v -0.075920 -0.035866 -0.050590
v -0.064362 -0.008593 -0.050590
v -0.043005 0.012280 -0.050590
v -0.054735 0.002872 -0.050590
v -0.071515 -0.021673 -0.050590
v -0.029623 0.019272 -0.050590
v -0.015101 0.023577 -0.050590
v 0.000000 0.025031 -0.050590
v 0.015101 0.023577 -0.050590
v 0.029622 0.019272 -0.050590
v -0.078902 -0.048939 -0.050590
v 0.054735 0.002872 -0.050590
v 0.043005 0.012281 -0.050590
v -0.076832 -0.044912 -0.050590
v 0.064362 -0.008593 -0.050590
v 0.071515 -0.021673 -0.050590
v 0.075920 -0.035866 -0.050590
v 0.078902 -0.048939 -0.050590
v 0.076832 -0.044912 -0.050590
vn -0.0000 1.0000 -0.0000
vn -0.0000 -0.0000 1.0000
vn -1.0000 -0.0000 -0.0000
vn -0.0000 -1.0000 -0.0000
vn 1.0000 -0.0000 -0.0000
vn -0.0000 -0.0000 -1.0000
vn 0.9950 -0.1003 -0.0000
vn -0.9950 -0.1003 -0.0000
vn -0.4630 -0.8863 -0.0000
vn 0.7658 -0.6430 -0.0000
vn 0.9551 -0.2964 -0.0000
vn -0.7658 -0.6430 -0.0000
vn 0.4630 -0.8863 -0.0000
vn -0.9551 -0.2964 -0.0000
vn -0.6257 -0.7801 -0.0000
vn 0.8774 -0.4798 -0.0000
vn 0.2843 -0.9587 -0.0000
vn -0.0958 -0.9954 -0.0000
vn 0.6257 -0.7801 -0.0000
vn 0.0958 -0.9954 -0.0000
vn -0.2843 -0.9587 -0.0000
vn -0.8774 -0.4798 -0.0000
vn 0.3670 -0.9302 -0.0000
vn 0.8893 -0.4573 -0.0000
vn -0.8893 -0.4573 -0.0000
vn -0.3670 -0.9302 -0.0000
vt 0.625000 0.500000
vt 0.875000 0.500000
vt 0.875000 0.750000
vt 0.625000 0.750000
vt 0.379080 0.779245
vt 0.375000 0.774166
vt 0.375000 0.750000
vt 0.625000 1.000000
vt 0.375000 1.000000
vt 0.375000 0.975834
vt 0.379080 0.970755
vt 0.389029 0.968242
vt 0.411380 0.967136
vt 0.446449 0.961790
vt 0.478767 0.953109
vt 0.507095 0.941426
vt 0.530343 0.927191
vt 0.547618 0.910950
vt 0.558256 0.893327
vt 0.561848 0.875000
vt 0.558256 0.856673
vt 0.547618 0.839050
vt 0.530343 0.822809
vt 0.507095 0.808574
vt 0.478768 0.796891
vt 0.446449 0.788210
vt 0.411381 0.782864
vt 0.389029 0.781758
vt 0.375000 0.000000
vt 0.625000 0.000000
vt 0.625000 0.250000
vt 0.375000 0.250000
vt 0.375000 0.500000
vt 0.350834 0.750000
vt 0.350834 0.500000
vt 0.149166 0.750000
vt 0.125000 0.750000
vt 0.125000 0.500000
vt 0.149166 0.500000
vt 0.379080 0.279245
vt 0.375000 0.274166
vt 0.375000 0.475834
vt 0.379080 0.470755
vt 0.389029 0.468242
vt 0.411381 0.467136
vt 0.446449 0.461790
vt 0.478768 0.453109
vt 0.507095 0.441426
vt 0.530343 0.427191
vt 0.547618 0.410950
vt 0.558256 0.393327
vt 0.561848 0.375000
vt 0.558256 0.356673
vt 0.547618 0.339050
vt 0.530343 0.322809
vt 0.507095 0.308574
vt 0.478767 0.296891
vt 0.446448 0.288210
vt 0.411380 0.282864
vt 0.389029 0.281758
vt 0.128565 0.892655
vt 0.128565 0.812924
vt 0.137345 0.812924
vt 0.137345 0.892655
vt 0.684225 0.693858
vt 0.679564 0.771472
vt 0.670799 0.770759
vt 0.675460 0.693146
vt 0.172716 0.523909
vt 0.099105 0.523909
vt 0.099105 0.509855
vt 0.172716 0.509855
vt 0.088222 0.812924
vt 0.100696 0.812924
vt 0.100696 0.892655
vt 0.088222 0.892655
vt 0.114318 0.812924
vt 0.114318 0.892655
vt 0.630603 0.771480
vt 0.635264 0.693866
vt 0.647678 0.692920
vt 0.643017 0.770534
vt 0.172716 0.600180
vt 0.099105 0.600180
vt 0.099105 0.586126
vt 0.172716 0.586126
vt 0.656590 0.770291
vt 0.661251 0.692677
vt 0.099105 0.497537
vt 0.172716 0.497537
vt 0.099105 0.570876
vt 0.172716 0.570876
vt 0.099105 0.555017
vt 0.099105 0.539159
vt 0.172716 0.539159
vt 0.172716 0.555017
vt 0.172716 0.612498
vt 0.099105 0.612498
vt 0.867462 0.769680
vt 0.863404 0.769680
vt 0.863404 0.689949
vt 0.867462 0.689949
vt 0.141518 0.812924
vt 0.141518 0.892655
vt 0.688383 0.693812
vt 0.683722 0.771426
vt 0.912740 0.184411
vt 0.908683 0.184411
vt 0.908683 0.104680
vt 0.912740 0.104680
s 0
usemtl Material.005
f 1/1/1 9/2/1 13/3/1 5/4/1
f 27/5/2 28/6/2 7/7/2 5/4/2 13/8/2 15/9/2 19/10/2 20/11/2 24/12/2 21/13/2 22/14/2 23/15/2 25/16/2 26/17/2 4/18/2 2/19/2 6/20/2 8/21/2 10/22/2 14/23/2 11/24/2 16/25/2 17/26/2 18/27/2 29/28/2
f 15/29/3 13/30/3 9/31/3 12/32/3
f 3/33/4 7/7/4 28/34/4 30/35/4
f 19/36/4 15/37/4 12/38/4 31/39/4
f 3/33/5 1/1/5 5/4/5 7/7/5
f 42/40/6 31/41/6 12/32/6 9/31/6 1/1/6 3/33/6 30/42/6 49/43/6 50/44/6 48/45/6 47/46/6 46/47/6 43/48/6 44/49/6 41/50/6 40/51/6 39/52/6 38/53/6 37/54/6 34/55/6 35/56/6 33/57/6 36/58/6 32/59/6 45/60/6
s 1
f 32/61/7 21/62/7 24/63/7 45/64/7
f 50/65/8 29/66/8 18/67/8 48/68/8
f 10/69/9 41/70/9 44/71/9 14/72/9
f 25/73/10 23/74/10 33/75/10 35/76/10
f 22/77/11 21/62/11 32/61/11 36/78/11
f 11/79/12 43/80/12 46/81/12 16/82/12
f 26/83/13 34/84/13 37/85/13 4/86/13
f 17/87/14 47/88/14 48/68/14 18/67/14
f 14/72/15 44/71/15 43/89/15 11/90/15
f 23/74/16 22/77/16 36/78/16 33/75/16
f 37/85/17 38/91/17 2/92/17 4/86/17
f 39/93/18 40/94/18 8/95/18 6/96/18
f 26/83/19 25/97/19 35/98/19 34/84/19
f 38/91/20 39/93/20 6/96/20 2/92/20
f 40/94/21 41/70/21 10/69/21 8/95/21
f 16/82/22 46/81/22 47/88/22 17/87/22
f 31/99/23 42/100/23 20/101/23 19/102/23
f 24/63/24 20/103/24 42/104/24 45/64/24
f 29/66/25 50/65/25 49/105/25 27/106/25
f 49/107/26 30/108/26 28/109/26 27/110/26
